<svg width="20" height="20" viewBox="0 0 20 20" fill="none" xmlns="http://www.w3.org/2000/svg">
<path d="M8.71889 16.6425H10.3038C10.3038 11.8355 6.39307 7.9248 1.58691 7.9248V9.50969C5.51901 9.50969 8.71889 12.7096 8.71889 16.6425V16.6425Z" fill="white"/>
<path d="M5.54912 16.6426H7.134C7.134 13.5838 4.64574 11.0947 1.58691 11.0947V12.6796C3.77167 12.6796 5.54912 14.4571 5.54912 16.6426Z" fill="white"/>
<path d="M2.77365 16.6381C3.42907 16.6381 3.96039 16.1068 3.96039 15.4514C3.96039 14.796 3.42907 14.2646 2.77365 14.2646C2.11824 14.2646 1.58691 14.796 1.58691 15.4514C1.58691 16.1068 2.11824 16.6381 2.77365 16.6381Z" fill="white"/>
<path d="M15.852 3.16992H3.17192C2.29779 3.16992 1.58691 3.8808 1.58691 4.75493V6.38115C2.12582 6.40096 2.656 6.45564 3.17192 6.55312V4.75493H15.852V15.0575H11.6763C11.7738 15.5734 11.8277 16.1036 11.8483 16.6425H15.852C16.7261 16.6425 17.437 15.9316 17.437 15.0575V4.75493C17.437 3.8808 16.7261 3.16992 15.852 3.16992Z" fill="white"/>
</svg>
