<svg width="16" height="16" viewBox="0 0 16 16" fill="none" xmlns="http://www.w3.org/2000/svg">
<g clip-path="url(#clip0_88_458)">
<path d="M8 4.5C8.69036 4.5 9.25 3.94036 9.25 3.25C9.25 2.55964 8.69036 2 8 2C7.30964 2 6.75 2.55964 6.75 3.25C6.75 3.94036 7.30964 4.5 8 4.5Z" stroke="#CB9801" stroke-linecap="round" stroke-linejoin="round"/>
<path d="M13.75 6.25C14.4404 6.25 15 5.69036 15 5C15 4.30964 14.4404 3.75 13.75 3.75C13.0596 3.75 12.5 4.30964 12.5 5C12.5 5.69036 13.0596 6.25 13.75 6.25Z" stroke="#CB9801" stroke-linecap="round" stroke-linejoin="round"/>
<path d="M2.25 6.25C2.94036 6.25 3.5 5.69036 3.5 5C3.5 4.30964 2.94036 3.75 2.25 3.75C1.55964 3.75 1 4.30964 1 5C1 5.69036 1.55964 6.25 2.25 6.25Z" stroke="#CB9801" stroke-linecap="round" stroke-linejoin="round"/>
<path d="M7.50121 4.39648L5.49996 8.99961L3.03809 5.96961" stroke="#CB9801" stroke-linecap="round" stroke-linejoin="round"/>
<path d="M12.9617 5.96961L10.4998 8.99961L8.49854 4.39648" stroke="#CB9801" stroke-linecap="round" stroke-linejoin="round"/>
<path d="M2.45557 6.2334L3.43057 12.0828C3.45009 12.1995 3.51035 12.3054 3.60063 12.3819C3.69092 12.4583 3.80539 12.5003 3.92369 12.5003H12.0762C12.1945 12.5003 12.309 12.4583 12.3993 12.3819C12.4895 12.3054 12.5498 12.1995 12.5693 12.0828L13.5443 6.2334" stroke="#CB9801" stroke-linecap="round" stroke-linejoin="round"/>
</g>
<defs>
<clipPath id="clip0_88_458">
<rect width="16" height="16" fill="white"/>
</clipPath>
</defs>
</svg>
