<svg width="16" height="16" viewBox="0 0 16 16" fill="none" xmlns="http://www.w3.org/2000/svg">
<g clip-path="url(#clip0_88_421)">
<path d="M3.41931 12.5003H12.5806C12.6981 12.5003 12.8119 12.459 12.902 12.3834C12.9921 12.3078 13.0526 12.203 13.0731 12.0872L14.4918 5.5872C14.5096 5.48024 14.4922 5.37038 14.4421 5.27419C14.3921 5.178 14.3121 5.1007 14.2142 5.05393C14.1164 5.00717 14.006 4.99348 13.8997 5.01492C13.7934 5.03637 13.697 5.09179 13.6249 5.17283L10.9999 8.00033L8.45368 2.29095C8.4136 2.20436 8.34958 2.13104 8.26918 2.07966C8.18878 2.02828 8.09535 2.00098 7.99993 2.00098C7.90452 2.00098 7.81109 2.02828 7.73069 2.07966C7.65029 2.13104 7.58627 2.20436 7.54618 2.29095L4.99993 8.00033L2.37493 5.17283C2.30304 5.0906 2.2062 5.03418 2.09921 5.01219C1.99223 4.9902 1.88099 5.00384 1.78249 5.05104C1.68399 5.09823 1.60365 5.17638 1.55376 5.27354C1.50386 5.3707 1.48715 5.48152 1.50618 5.58908L2.92493 12.0891C2.94581 12.2048 3.00682 12.3095 3.09724 12.3847C3.18766 12.4599 3.3017 12.5009 3.41931 12.5003Z" stroke="#594300" stroke-linecap="round" stroke-linejoin="round"/>
</g>
<defs>
<clipPath id="clip0_88_421">
<rect width="16" height="16" fill="white"/>
</clipPath>
</defs>
</svg>
