<svg width="64" height="64" viewBox="0 0 64 64" fill="none" xmlns="http://www.w3.org/2000/svg">
<g opacity="0.8" clip-path="url(#clip0_260_5168)">
<path d="M18.585 21.415C18.2097 21.0397 17.9989 20.5307 17.9989 20C17.9989 19.4693 18.2097 18.9603 18.585 18.585C18.9603 18.2097 19.4693 17.9989 20 17.9989C20.5307 17.9989 21.0397 18.2097 21.415 18.585L30 27.1725V6C30 5.46957 30.2107 4.96086 30.5858 4.58579C30.9609 4.21071 31.4696 4 32 4C32.5304 4 33.0391 4.21071 33.4142 4.58579C33.7893 4.96086 34 5.46957 34 6V27.1725L42.585 18.585C42.9603 18.2097 43.4693 17.9989 44 17.9989C44.5307 17.9989 45.0397 18.2097 45.415 18.585C45.7903 18.9603 46.0011 19.4693 46.0011 20C46.0011 20.5307 45.7903 21.0397 45.415 21.415L33.415 33.415C33.2293 33.601 33.0087 33.7485 32.7659 33.8491C32.5231 33.9498 32.2628 34.0016 32 34.0016C31.7372 34.0016 31.4769 33.9498 31.2341 33.8491C30.9913 33.7485 30.7707 33.601 30.585 33.415L18.585 21.415ZM60 34V50C60 51.0609 59.5786 52.0783 58.8284 52.8284C58.0783 53.5786 57.0609 54 56 54H8C6.93913 54 5.92172 53.5786 5.17157 52.8284C4.42143 52.0783 4 51.0609 4 50V34C4 32.9391 4.42143 31.9217 5.17157 31.1716C5.92172 30.4214 6.93913 30 8 30H21.1C21.2314 29.9999 21.3615 30.0257 21.4828 30.0759C21.6042 30.1261 21.7146 30.1997 21.8075 30.2925L27.75 36.25C28.3074 36.8094 28.9698 37.2532 29.6991 37.556C30.4284 37.8588 31.2103 38.0147 32 38.0147C32.7897 38.0147 33.5716 37.8588 34.3009 37.556C35.0302 37.2532 35.6926 36.8094 36.25 36.25L42.2 30.3C42.3846 30.1116 42.6362 30.0038 42.9 30H56C57.0609 30 58.0783 30.4214 58.8284 31.1716C59.5786 31.9217 60 32.9391 60 34ZM50 42C50 41.4067 49.8241 40.8266 49.4944 40.3333C49.1648 39.8399 48.6962 39.4554 48.148 39.2284C47.5999 39.0013 46.9967 38.9419 46.4147 39.0576C45.8328 39.1734 45.2982 39.4591 44.8787 39.8787C44.4591 40.2982 44.1734 40.8328 44.0576 41.4147C43.9419 41.9967 44.0013 42.5999 44.2284 43.148C44.4554 43.6962 44.8399 44.1648 45.3333 44.4944C45.8266 44.8241 46.4067 45 47 45C47.7957 45 48.5587 44.6839 49.1213 44.1213C49.6839 43.5587 50 42.7957 50 42Z" fill="#FEBE01"/>
</g>
<defs>
<clipPath id="clip0_260_5168">
<rect width="64" height="64" fill="white"/>
</clipPath>
</defs>
</svg>
