<svg width="27" height="28" viewBox="0 0 27 28" fill="none" xmlns="http://www.w3.org/2000/svg">
<path d="M18.1643 9.66797C23.0182 9.66797 26.9534 13.6031 26.9534 18.457C26.9534 23.3109 23.0182 27.2461 18.1643 27.2461C16.4411 27.2461 14.8332 26.7498 13.4768 25.8926C14.2918 25.3781 15.0166 24.733 15.6207 23.9859C16.3948 24.3428 17.2561 24.542 18.1643 24.542C21.5246 24.542 24.2493 21.8174 24.2493 18.457C24.2493 13.9942 19.6137 11.0873 15.6207 12.9281C12.0179 14.5865 10.915 19.2468 13.4768 22.3365C12.8985 23.035 12.1666 23.6021 11.3329 23.9859C8.73094 20.7778 8.71254 16.159 11.3329 12.9281C12.9381 10.943 15.4042 9.66797 18.1643 9.66797Z" fill="#FCBE00"/>
<path d="M15.6205 12.9283C18.2224 16.1365 18.2408 20.7553 15.6205 23.9861C14.0152 25.9713 11.5491 27.2463 8.78906 27.2463C3.93516 27.2463 0 23.3111 0 18.4572C0 13.1533 4.66857 9.05416 9.92637 9.7414C11.2189 9.9084 12.4236 10.3561 13.4766 11.0217C12.6615 11.5361 11.9367 12.1812 11.3326 12.9283C7.34057 11.0879 2.7041 13.9938 2.7041 18.4572C2.7041 21.8176 5.42871 24.5422 8.78906 24.5422C10.6528 24.5422 12.3478 23.7 13.4766 22.3367C15.3404 20.0889 15.3412 16.8265 13.4766 14.5777C14.0549 13.8793 14.7867 13.3121 15.6205 12.9283Z" fill="#FFD92E"/>
<path d="M12.5932 6.09474C12.5932 6.7381 12.3535 7.32756 11.8385 7.94865C11.35 8.53775 10.5526 9.21129 9.92656 9.74103C9.17932 9.64336 8.39961 9.6433 7.65195 9.74103C7.0223 9.21633 6.20533 8.50986 5.74004 7.94865C5.225 7.32756 4.98535 6.7381 4.98535 6.09474C4.98535 3.89098 7.52375 2.97094 8.78926 4.726C9.19549 4.1649 9.76953 3.80842 10.468 3.80842C11.6859 3.80842 12.5932 4.80662 12.5932 6.09474Z" fill="#EC6385"/>
<path d="M26.7076 5.77073C27.2159 6.27903 26.9263 7.24553 25.919 7.34045C25.533 7.37649 25.0494 7.31538 24.4178 7.27249C24.3265 7.26639 24.2563 7.19438 24.2502 7.10549C24.1786 6.04688 24.0334 5.32313 24.4957 4.86077C25.1168 4.23762 26.1056 4.68586 25.9688 5.55393C26.2434 5.51063 26.5079 5.57098 26.7076 5.77073Z" fill="#EC6385"/>
<path d="M22.302 3.8969C22.2935 4.02382 22.1928 4.1263 22.0641 4.13479C20.5773 4.2354 19.5342 4.44469 18.8742 3.78616C17.9814 2.89337 18.6383 1.49509 19.8598 1.6926C19.6622 0.470691 21.0612 -0.185091 21.9533 0.707058C22.6097 1.36196 22.404 2.39327 22.302 3.8969Z" fill="#FF6E6A"/>
<path d="M12.6835 2.2579C12.569 2.14352 12.569 1.95801 12.6835 1.84364L13.8554 0.671763C13.9697 0.557329 14.1553 0.557329 14.2696 0.671763C14.384 0.786138 14.384 0.971645 14.2696 1.08602L13.0978 2.2579C12.9834 2.37239 12.7979 2.37239 12.6835 2.2579Z" fill="#FCBE00"/>
<path d="M15.8203 4.6875H14.6484C14.4866 4.6875 14.3555 4.55637 14.3555 4.39453C14.3555 4.2327 14.4866 4.10156 14.6484 4.10156H15.8203C15.9821 4.10156 16.1133 4.2327 16.1133 4.39453C16.1133 4.55637 15.9821 4.6875 15.8203 4.6875Z" fill="#FCBE00"/>
<path d="M4.48036 2.2579L3.30848 1.08602C3.19405 0.971645 3.19405 0.786138 3.30848 0.671763C3.42292 0.557329 3.60836 0.557329 3.7228 0.671763L4.89467 1.84364C5.00911 1.95801 5.00911 2.14352 4.89467 2.2579C4.78024 2.37239 4.59479 2.37239 4.48036 2.2579Z" fill="#FCBE00"/>
<path d="M2.92979 4.6875H1.97998C1.8182 4.6875 1.68701 4.55637 1.68701 4.39453C1.68701 4.2327 1.8182 4.10156 1.97998 4.10156H2.92979C3.09156 4.10156 3.22275 4.2327 3.22275 4.39453C3.22275 4.55637 3.09156 4.6875 2.92979 4.6875Z" fill="#FCBE00"/>
<path d="M8.78906 1.75781C8.62729 1.75781 8.49609 1.62668 8.49609 1.46484V0.292969C8.49609 0.131133 8.62729 0 8.78906 0C8.95084 0 9.08203 0.131133 9.08203 0.292969V1.46484C9.08203 1.62668 8.95084 1.75781 8.78906 1.75781Z" fill="#FCBE00"/>
</svg>
