<svg width="13" height="12" viewBox="0 0 13 12" fill="none" xmlns="http://www.w3.org/2000/svg">
<path d="M0.629953 1.33625C0.564892 1.26465 0.522 1.17571 0.506478 1.08022C0.490956 0.984728 0.50347 0.886783 0.542504 0.798262C0.581538 0.709741 0.645415 0.634445 0.726389 0.581504C0.807364 0.528563 0.901958 0.500251 0.998703 0.5H11.9987C12.0956 0.500009 12.1903 0.528147 12.2715 0.580994C12.3526 0.633841 12.4167 0.709123 12.4559 0.797692C12.4951 0.886261 12.5077 0.984305 12.4922 1.07991C12.4767 1.17552 12.4338 1.26457 12.3687 1.33625L7.9987 6V9.66562C7.99876 9.74796 7.97848 9.82904 7.93966 9.90166C7.90084 9.97427 7.8447 10.0362 7.7762 10.0819L5.7762 11.415C5.70097 11.4652 5.61354 11.494 5.52321 11.4985C5.43288 11.5029 5.34304 11.4828 5.26326 11.4402C5.18348 11.3976 5.11674 11.3342 5.07015 11.2566C5.02356 11.1791 4.99887 11.0904 4.9987 11V6L0.629953 1.33625Z" stroke="#B48A12" stroke-linecap="round" stroke-linejoin="round"/>
</svg>
