<svg width="30" height="30" viewBox="0 0 30 30" fill="none" xmlns="http://www.w3.org/2000/svg">
<path d="M17.4088 4.65293C17.2378 3.69443 15.5635 2.47253 13.1059 3.13343C10.5955 3.80843 8.47507 3.14573 7.66987 2.82443C7.53007 2.76863 7.38937 2.90333 7.44037 3.04493C7.75897 3.92723 8.79967 6.10733 11.4277 6.63083C14.758 7.29353 17.6134 5.80043 17.4088 4.65293Z" fill="#95BF00"/>
<path d="M12.8249 5.00742C12.7145 5.00742 12.6167 5.00562 12.5342 5.00172C12.0167 4.97682 11.0786 4.84632 10.1381 4.56102C9.34789 4.32102 8.27209 3.88272 7.63519 3.15582C7.61869 3.13722 7.62079 3.10872 7.63939 3.09222C7.65799 3.07572 7.68649 3.07782 7.70299 3.09642C8.88499 4.44522 11.6597 4.86942 12.5387 4.91172C13.5515 4.96032 16.9166 4.68312 16.9505 4.68042C16.9748 4.67862 16.997 4.69692 16.9991 4.72152C17.0012 4.74642 16.9826 4.76802 16.958 4.77012C16.9265 4.77252 14.0771 5.00742 12.8249 5.00742Z" fill="#201161"/>
<path d="M11.9039 3.70711C11.7479 3.71311 11.5922 3.71341 11.4368 3.69871C11.3216 3.68791 11.3222 3.86791 11.4368 3.87871C11.5922 3.89341 11.7479 3.89281 11.9039 3.88711C12.0194 3.88261 12.02 3.70261 11.9039 3.70711Z" fill="white"/>
<path d="M13.6203 3.47487C13.143 3.57417 12.6579 3.64827 12.1722 3.68997C12.0576 3.69987 12.0567 3.87987 12.1722 3.86997C12.6738 3.82677 13.1751 3.75087 13.668 3.64827C13.7817 3.62487 13.7337 3.45117 13.6203 3.47487Z" fill="white"/>
<path d="M16.0425 9.28516C16.8093 9.53896 14.3331 14.9006 15.3486 18.5321C16.1199 21.2906 13.1865 23.069 12.7908 25.0337C12.5892 26.0351 12.5502 26.8406 12.5685 27.425C12.5805 27.8066 13.0446 27.9845 13.3125 27.7127C13.8243 27.1934 14.6547 26.6567 15.795 26.8823C16.6125 27.044 16.8036 27.9812 19.1301 27.4286C20.8479 27.0206 21.5193 25.3325 22.6527 25.6883C25.2729 26.5112 25.9785 24.9152 26.823 24.1571C27.3648 23.6708 28.4109 23.7392 29.1732 23.8757C29.5425 23.9417 29.8182 23.5409 29.6208 23.2217C28.9428 22.1255 27.4638 20.2469 24.7806 19.07C21.7365 17.7347 23.7324 16.8431 21.3612 14.5616C18.2976 11.6135 19.8927 9.65926 19.8927 9.65926L16.0425 9.28516Z" fill="#FFC200"/>
<path d="M16.4991 12.791C16.4991 12.791 16.0563 14.4506 16.3077 16.1216C16.5348 17.6294 17.4753 19.1045 17.2008 20.1233C16.7826 21.677 15.6918 24.5744 16.32 26.4296" fill="#FFC200"/>
<path d="M16.3199 26.4744C16.3013 26.4744 16.2836 26.4627 16.2773 26.4438C15.7463 24.8757 16.4198 22.6134 16.9115 20.9616C17.0033 20.6538 17.0897 20.3628 17.1575 20.1117C17.3165 19.5207 17.0495 18.7491 16.7666 17.9319C16.5647 17.349 16.3562 16.746 16.2632 16.1283C16.013 14.4672 16.451 12.7959 16.4555 12.7794C16.4618 12.7554 16.4864 12.7413 16.5107 12.7476C16.5347 12.7539 16.5491 12.7788 16.5425 12.8028C16.538 12.8193 16.1051 14.4732 16.3523 16.1151C16.4441 16.7244 16.6514 17.3235 16.8518 17.9025C17.1392 18.7329 17.4107 19.5174 17.2445 20.1351C17.1767 20.3874 17.0897 20.679 16.9979 20.9874C16.5095 22.6278 15.8411 24.8742 16.3628 26.415C16.3709 26.4387 16.358 26.4642 16.3346 26.472C16.3295 26.4735 16.3247 26.4744 16.3199 26.4744Z" fill="#201161"/>
<path d="M17.8623 12.5264C17.8623 12.5264 19.5444 14.5973 20.0364 16.67C20.5284 18.7427 19.6911 19.9043 21.1962 21.4244C22.032 22.2686 22.1007 25.0298 22.1007 25.0298" fill="#FFC200"/>
<path d="M22.1003 25.0743C22.076 25.0743 22.0559 25.0548 22.0553 25.0305C22.0547 25.0032 21.9776 22.2774 21.164 21.4557C20.1896 20.4717 20.1839 19.6131 20.177 18.6192C20.1731 18.0588 20.1689 17.4237 19.9925 16.6803C19.5086 14.6415 17.8439 12.5754 17.8274 12.5547C17.8118 12.5355 17.8148 12.507 17.834 12.4914C17.8532 12.4758 17.8817 12.4788 17.8973 12.498C17.9141 12.5187 19.5917 14.6007 20.0801 16.6596C20.2589 17.4132 20.2634 18.0537 20.267 18.6189C20.2739 19.6335 20.2793 20.4348 21.2279 21.3927C21.5813 21.7497 21.8432 22.4709 22.0061 23.5368C22.1267 24.3264 22.1453 25.0218 22.1453 25.0287C22.1459 25.0536 22.1264 25.0743 22.1015 25.0749C22.1009 25.0743 22.1006 25.0743 22.1003 25.0743Z" fill="#201161"/>
<path d="M20.0737 9.40793C19.9864 11.4902 18.9931 10.1948 17.7028 10.1405C16.4128 10.0865 15.3145 11.294 15.4018 9.21203C15.4891 7.12973 17.7313 4.38233 19.0216 4.43633C20.3116 4.49033 20.161 7.32563 20.0737 9.40793Z" fill="#537700"/>
<path d="M18.6016 5.48843C18.6016 5.48843 18.8821 4.19513 19.7974 3.17573C20.3614 2.54753 20.8405 2.24483 21.1051 2.10653C21.232 2.04023 21.3877 2.06963 21.4825 2.17673L21.5764 2.28233C21.7051 2.42723 21.6727 2.65313 21.5083 2.75573C21.2077 2.94353 20.632 3.27203 20.1667 3.73703C19.5859 4.31753 18.6016 5.48843 18.6016 5.48843Z" fill="#537700"/>
<path d="M21.5302 2.70768C21.5209 2.70768 21.5116 2.70468 21.5035 2.69868C21.2002 2.47308 21.1141 2.16738 21.1105 2.15448C21.1039 2.13048 21.118 2.10588 21.142 2.09928C21.166 2.09268 21.1906 2.10678 21.1972 2.13078C21.1981 2.13378 21.2797 2.42028 21.5569 2.62668C21.577 2.64138 21.5809 2.66958 21.5662 2.68968C21.5575 2.70138 21.544 2.70768 21.5302 2.70768Z" fill="#201161"/>
<path d="M17.4495 8.3968C17.4769 8.17623 17.3839 7.98315 17.2419 7.96554C17.0999 7.94794 16.9626 8.11247 16.9353 8.33304C16.9079 8.55361 17.0009 8.7467 17.1429 8.7643C17.2849 8.78191 17.4222 8.61738 17.4495 8.3968Z" fill="#201161"/>
<path d="M18.5726 8.51595C18.5999 8.29538 18.507 8.10229 18.365 8.08468C18.2229 8.06708 18.0857 8.23161 18.0583 8.45218C18.031 8.67275 18.1239 8.86584 18.2659 8.88344C18.4079 8.90105 18.5452 8.73652 18.5726 8.51595Z" fill="#201161"/>
<path d="M19.8395 8.9584C19.865 8.74912 19.6769 8.55402 19.4192 8.52262C19.1616 8.49123 18.932 8.63543 18.9065 8.8447C18.881 9.05398 19.0692 9.24908 19.3269 9.28048C19.5845 9.31187 19.814 9.16767 19.8395 8.9584Z" fill="#FF3636"/>
<path d="M19.1341 9.04395C19.1314 9.04395 19.1287 9.04365 19.126 9.04335H19.1257C19.1101 9.04125 19.0957 9.03405 19.0849 9.02265C19.0591 8.99565 19.0597 8.95215 19.0864 8.92575L19.3024 8.71065C19.3156 8.69745 19.3336 8.68935 19.3513 8.69055C19.3699 8.69085 19.387 8.69835 19.3999 8.71155C19.4257 8.73855 19.4251 8.78205 19.3987 8.80845L19.1827 9.02355C19.1692 9.03705 19.1521 9.04395 19.1341 9.04395Z" fill="white"/>
<path d="M19.4235 9.10135C19.4211 9.10135 19.4184 9.10135 19.416 9.10075C19.4025 9.09925 19.3899 9.09325 19.38 9.08365C19.3548 9.05995 19.3506 9.01945 19.3704 8.98945L19.4775 8.82505C19.4886 8.80795 19.5063 8.79685 19.5255 8.79445C19.5444 8.79205 19.5627 8.79835 19.5765 8.81155C19.6017 8.83525 19.6059 8.87575 19.5861 8.90575L19.479 9.07015C19.4661 9.08995 19.4454 9.10135 19.4235 9.10135Z" fill="white"/>
<path d="M16.5686 8.55801C16.5941 8.34873 16.4059 8.15363 16.1482 8.12223C15.8906 8.09084 15.661 8.23504 15.6355 8.44431C15.61 8.65359 15.7982 8.84869 16.0559 8.88009C16.3135 8.91148 16.5431 8.76728 16.5686 8.55801Z" fill="#FF3636"/>
<path d="M15.8646 8.64314C15.8619 8.64314 15.8589 8.64284 15.8562 8.64254C15.8406 8.64044 15.8262 8.63324 15.8154 8.62214C15.7896 8.59514 15.7902 8.55164 15.8166 8.52524L16.0326 8.31014C16.0455 8.29724 16.0626 8.29004 16.0809 8.29004H16.0818C16.1004 8.29034 16.1175 8.29754 16.1304 8.31104C16.1562 8.33804 16.1556 8.38154 16.1292 8.40794L15.9132 8.62304C15.8997 8.63624 15.8826 8.64314 15.8646 8.64314Z" fill="white"/>
<path d="M16.1539 8.69989C16.1515 8.69989 16.1488 8.69959 16.1464 8.69929C16.1464 8.69929 16.1464 8.69929 16.1461 8.69929C16.1326 8.69749 16.1203 8.69179 16.1104 8.68219C16.0852 8.65849 16.081 8.61799 16.1008 8.58799L16.2079 8.42359C16.219 8.40649 16.2367 8.39539 16.2559 8.39299C16.2745 8.39089 16.2931 8.39689 16.3069 8.41009C16.3321 8.43379 16.3363 8.47429 16.3165 8.50429L16.2094 8.66869C16.1965 8.68849 16.1758 8.69989 16.1539 8.69989Z" fill="white"/>
<path d="M17.2449 8.22975C17.2538 8.15875 17.2174 8.09574 17.1636 8.08902C17.1099 8.0823 17.0591 8.13442 17.0503 8.20542C17.0414 8.27642 17.0777 8.33943 17.1315 8.34615C17.1852 8.35287 17.236 8.30075 17.2449 8.22975Z" fill="white"/>
<path d="M18.3601 8.35377C18.369 8.28277 18.3326 8.21976 18.2789 8.21305C18.2251 8.20633 18.1744 8.25844 18.1655 8.32944C18.1566 8.40045 18.193 8.46345 18.2467 8.47017C18.3005 8.47689 18.3512 8.42478 18.3601 8.35377Z" fill="white"/>
<path d="M17.6817 9.50951C17.6763 9.50951 17.6709 9.50951 17.6652 9.50921C17.5743 9.50471 17.499 9.46901 17.4414 9.40301C17.2947 9.23501 17.319 8.92721 17.3199 8.91431C17.322 8.88971 17.3442 8.87111 17.3685 8.87321C17.3934 8.87531 17.4117 8.89691 17.4096 8.92181C17.4093 8.92451 17.3877 9.20501 17.5092 9.34391C17.5506 9.39131 17.6031 9.41591 17.6694 9.41921C17.673 9.41951 17.6769 9.41951 17.6805 9.41951C17.9337 9.41951 17.9805 8.97761 17.9811 8.97311C17.9835 8.94851 18.0054 8.93051 18.0303 8.93291C18.0549 8.93531 18.0732 8.95721 18.0708 8.98211C18.0702 8.98751 18.0573 9.11591 18.0045 9.24401C17.9328 9.41801 17.8215 9.50951 17.6817 9.50951Z" fill="#201161"/>
<path d="M12.4299 6.80762C12.7566 7.38152 8.12996 8.56802 6.94856 12.0441C6.19496 14.2611 3.15296 13.6164 1.83746 14.5932C1.16696 15.0909 0.702564 15.5589 0.393864 15.924C0.192264 16.1625 0.376764 16.5243 0.688464 16.5057C1.28336 16.4703 2.08136 16.5987 2.65046 17.3598C3.05846 17.9052 2.66156 18.579 4.37696 19.5165C5.64356 20.2086 6.97526 19.551 7.46876 20.3871C8.60966 22.3206 9.91166 21.7374 10.8393 21.7392C11.4345 21.7404 12.0324 22.3542 12.4206 22.8543C12.6087 23.0967 12.9954 23.004 13.0503 22.7022C13.2384 21.6654 13.368 19.7151 12.3825 17.532C11.2644 15.0552 12.7014 15.618 12.51 12.9348C12.2625 9.46802 14.5635 9.14162 14.5635 9.14162L12.4299 6.80762Z" fill="#FFC200"/>
<path d="M10.7885 9.18652C10.7885 9.18652 9.6113 9.95212 8.8499 11.1047C8.1626 12.1448 7.9268 13.5551 7.2026 14.024C6.0983 14.7386 3.8504 15.9017 3.2168 17.372" fill="#FFC200"/>
<path d="M3.2167 17.4171C3.2107 17.4171 3.2047 17.4159 3.199 17.4135C3.1762 17.4036 3.1657 17.3772 3.1756 17.3544C3.712 16.1091 5.3605 15.1026 6.5638 14.3679C6.7879 14.2311 6.9997 14.1018 7.1782 13.9863C7.5961 13.7157 7.8556 13.1019 8.1307 12.4521C8.3272 11.9871 8.5306 11.5065 8.8126 11.0799C9.5707 9.93272 10.7524 9.15662 10.7644 9.14882C10.7851 9.13532 10.813 9.14132 10.8265 9.16202C10.84 9.18272 10.8343 9.21062 10.8133 9.22442C10.8016 9.23192 9.6349 9.99872 8.8876 11.1297C8.6104 11.5494 8.4085 12.0261 8.2135 12.4872C7.933 13.1502 7.6684 13.7763 7.2271 14.0619C7.0477 14.178 6.8353 14.3076 6.6109 14.4447C5.4178 15.1731 3.7834 16.1709 3.2584 17.3901C3.2509 17.4069 3.2341 17.4171 3.2167 17.4171Z" fill="#201161"/>
<path d="M11.7615 9.77246C11.7615 9.77246 11.6499 11.9508 10.8144 13.4787C9.97885 15.0066 8.83465 15.2541 8.91715 17.0007C8.96275 17.9706 7.49365 19.6854 7.49365 19.6854" fill="#FFC200"/>
<path d="M7.49352 19.7302C7.48332 19.7302 7.47282 19.7266 7.46442 19.7194C7.44552 19.7032 7.44342 19.6747 7.45962 19.6561C7.47432 19.639 8.91672 17.944 8.87232 17.0029C8.81892 15.8686 9.28602 15.343 9.82722 14.7343C10.1311 14.3923 10.4758 14.0047 10.7752 13.4572C11.596 11.956 11.7157 9.79207 11.7166 9.77017C11.7178 9.74527 11.7382 9.72667 11.764 9.72757C11.7889 9.72877 11.8078 9.75007 11.8066 9.77497C11.8054 9.79687 11.6851 11.9809 10.8541 13.5004C10.5499 14.0569 10.2016 14.4484 9.89442 14.7943C9.34482 15.4129 8.91042 15.9013 8.96232 16.999C8.98182 17.4109 8.74572 17.9941 8.26032 18.7318C7.90122 19.2778 7.53162 19.7104 7.52802 19.7149C7.51872 19.7248 7.50612 19.7302 7.49352 19.7302Z" fill="#201161"/>
<path d="M14.8107 9.08838C13.6182 10.3052 13.7238 8.97498 12.9699 8.23608C12.216 7.49718 10.8882 7.62978 12.0804 6.41298C13.2726 5.19618 18.0438 4.54668 17.862 5.58648C17.7627 6.15378 16.0029 7.87158 14.8107 9.08838Z" fill="#537700"/>
<path d="M13.7811 7.0373C13.9185 6.91825 13.9678 6.75005 13.8912 6.66162C13.8146 6.57318 13.6411 6.59801 13.5037 6.71706C13.3663 6.83611 13.317 7.00431 13.3936 7.09274C13.4702 7.18117 13.6437 7.15635 13.7811 7.0373Z" fill="#201161"/>
<path d="M14.3983 7.7248C14.5357 7.60575 14.585 7.43755 14.5084 7.34912C14.4318 7.26068 14.2583 7.28551 14.1209 7.40456C13.9835 7.52361 13.9342 7.69181 14.0108 7.78024C14.0874 7.86867 14.2609 7.84385 14.3983 7.7248Z" fill="#201161"/>
<path d="M14.9078 8.67878C15.0377 8.56557 15.0301 8.34416 14.8908 8.18426C14.7514 8.02435 14.5331 7.98649 14.4032 8.0997C14.2733 8.21291 14.2809 8.43432 14.4203 8.59422C14.5596 8.75413 14.7779 8.79198 14.9078 8.67878Z" fill="#FF3636"/>
<path d="M14.4768 8.37546C14.4582 8.37546 14.4405 8.36766 14.4282 8.35356C14.4186 8.34246 14.4129 8.32836 14.4126 8.31366C14.4114 8.27856 14.4393 8.24856 14.4741 8.24706L14.7228 8.23446C14.7402 8.23356 14.7567 8.23956 14.7696 8.25126C14.7825 8.26296 14.7897 8.27886 14.79 8.29626C14.7912 8.33136 14.7633 8.36136 14.7285 8.36316L14.4798 8.37576C14.4789 8.37546 14.4777 8.37546 14.4768 8.37546Z" fill="white"/>
<path d="M14.6194 8.56732C14.6017 8.56732 14.5849 8.56012 14.5732 8.54662C14.5648 8.53702 14.5597 8.52502 14.5588 8.51212C14.5561 8.48002 14.5783 8.44942 14.6107 8.44072L14.7658 8.39962C14.7844 8.39482 14.8036 8.39812 14.8186 8.40862C14.833 8.41882 14.8423 8.43502 14.8435 8.45302C14.8462 8.48512 14.8237 8.51572 14.7916 8.52412L14.6368 8.56522C14.6308 8.56672 14.6251 8.56732 14.6194 8.56732Z" fill="white"/>
<path d="M13.1412 6.64655C13.2711 6.53334 13.2635 6.31194 13.1242 6.15203C12.9848 5.99212 12.7665 5.95427 12.6366 6.06748C12.5067 6.18069 12.5143 6.40209 12.6537 6.562C12.793 6.7219 13.0113 6.75976 13.1412 6.64655Z" fill="#FF3636"/>
<path d="M12.7102 6.34262C12.6916 6.34262 12.6742 6.33482 12.6619 6.32072L12.6616 6.32042C12.652 6.30932 12.6466 6.29492 12.646 6.28022C12.6448 6.24542 12.6727 6.21542 12.7075 6.21392L12.9562 6.20132C12.9736 6.20012 12.9901 6.20642 13.003 6.21812C13.0159 6.22982 13.0231 6.24572 13.0234 6.26312C13.0246 6.29822 12.9967 6.32792 12.9619 6.32972L12.7132 6.34232C12.7123 6.34262 12.7114 6.34262 12.7102 6.34262Z" fill="white"/>
<path d="M12.8533 6.53509C12.8356 6.53509 12.8188 6.52789 12.8071 6.51439C12.7987 6.50479 12.7939 6.49279 12.7927 6.47989C12.7903 6.44779 12.8125 6.41719 12.8446 6.40849L12.9997 6.36739C13.0183 6.36259 13.0375 6.36589 13.0525 6.37639C13.0669 6.38659 13.0762 6.40279 13.0777 6.42049C13.0801 6.45259 13.0579 6.48319 13.0258 6.49159L12.8707 6.53269C12.8647 6.53449 12.859 6.53509 12.8533 6.53509Z" fill="white"/>
<path d="M13.7425 6.81001C13.7867 6.7717 13.799 6.71343 13.7699 6.67987C13.7408 6.6463 13.6814 6.65014 13.6372 6.68845C13.593 6.72676 13.5807 6.78503 13.6098 6.81859C13.6389 6.85216 13.6983 6.84832 13.7425 6.81001Z" fill="white"/>
<path d="M14.3524 7.49458C14.3966 7.45627 14.4089 7.39801 14.3798 7.36444C14.3507 7.33087 14.2913 7.33471 14.2471 7.37302C14.2028 7.41133 14.1906 7.4696 14.2197 7.50317C14.2487 7.53673 14.3082 7.53289 14.3524 7.49458Z" fill="white"/>
<path d="M13.4652 7.9115C13.4028 7.9115 13.341 7.8914 13.287 7.8377C13.2327 7.7834 13.2057 7.7186 13.2066 7.6448C13.2093 7.4591 13.395 7.283 13.4028 7.2758C13.4208 7.259 13.4493 7.2596 13.4664 7.2779C13.4835 7.2959 13.4826 7.3244 13.4643 7.3415C13.4628 7.343 13.2984 7.499 13.2963 7.6466C13.2957 7.6955 13.3131 7.7372 13.35 7.7741C13.4976 7.9211 13.7694 7.676 13.7721 7.6736C13.7904 7.6568 13.8189 7.658 13.8357 7.6766C13.8525 7.6952 13.8513 7.7234 13.8327 7.7402C13.8234 7.7489 13.6425 7.9115 13.4652 7.9115Z" fill="#201161"/>
<path d="M19.9592 3.7442C19.4675 4.0013 18.6203 6.6086 20.4215 8.774C22.2617 10.9862 22.5758 13.4252 22.6256 14.3834C22.6343 14.5496 22.8347 14.6291 22.9535 14.5121C23.6933 13.7837 25.4045 11.7287 24.7148 8.8436C23.8412 5.1881 20.5829 3.4181 19.9592 3.7442Z" fill="#95BF00"/>
<path d="M22.9287 14.2896C22.9227 14.2896 22.9164 14.2884 22.9104 14.2857C22.8876 14.2755 22.8774 14.2491 22.8876 14.2263C23.6979 12.4122 22.8405 9.42389 22.4763 8.51999C22.0569 7.47869 20.2209 4.22279 20.2026 4.19009C20.1903 4.16849 20.1981 4.14089 20.2197 4.12889C20.2413 4.11659 20.2689 4.12439 20.2809 4.14599C20.2995 4.17869 22.1382 7.43999 22.5597 8.48669C22.7739 9.01829 23.0766 10.0215 23.2245 11.0988C23.3487 12.0039 23.4054 13.2876 22.9695 14.2632C22.9623 14.2797 22.9461 14.2896 22.9287 14.2896Z" fill="#201161"/>
<path d="M24.1478 8.57876C24.2036 8.76536 24.2492 8.95436 24.266 9.14876C24.2759 9.26336 24.4559 9.26426 24.446 9.14876C24.428 8.93786 24.3818 8.73326 24.3215 8.53076C24.2882 8.42006 24.1145 8.46746 24.1478 8.57876Z" fill="white"/>
<path d="M23.1927 6.59375C23.5248 7.11695 23.8155 7.67825 24.0372 8.25695C24.0783 8.36405 24.2523 8.31755 24.2109 8.20895C23.9835 7.61555 23.6889 7.03955 23.3484 6.50285C23.286 6.40535 23.1303 6.49565 23.1927 6.59375Z" fill="white"/>
<path d="M15.5651 8.325C15.5621 8.325 15.5588 8.3247 15.5558 8.3241C15.5315 8.319 15.5159 8.295 15.521 8.2707C15.6233 7.7832 15.9686 7.1169 16.5467 6.2901C16.976 5.6763 17.3807 5.1984 17.3849 5.1936C17.4011 5.1747 17.4293 5.1723 17.4482 5.1885C17.4671 5.2047 17.4695 5.2329 17.4533 5.2518C17.4374 5.2707 15.8477 7.1523 15.6089 8.289C15.6047 8.3103 15.5858 8.325 15.5651 8.325Z" fill="#201161"/>
<path d="M17.6741 5.37971C17.5949 5.46551 17.5211 5.55581 17.4512 5.64941C17.4221 5.68841 17.4449 5.74991 17.4836 5.77241C17.5295 5.79911 17.5775 5.77931 17.6066 5.74001C17.6672 5.65871 17.7326 5.58131 17.8013 5.50661C17.8796 5.42201 17.7527 5.29451 17.6741 5.37971Z" fill="white"/>
<path d="M18.6314 4.67314C18.335 4.79914 18.0662 5.00614 17.831 5.22214C17.7455 5.30074 17.873 5.42764 17.9582 5.34934C18.1826 5.14324 18.4394 4.94884 18.7223 4.82854C18.8285 4.78324 18.7367 4.62814 18.6314 4.67314Z" fill="white"/>
</svg>
