<svg width="16" height="16" viewBox="0 0 13 13" fill="none" xmlns="http://www.w3.org/2000/svg">
<path d="M4.75413 0.5C4.4398 1.54004 4.41351 2.64587 4.67805 3.69968C4.94258 4.75348 5.48805 5.71578 6.25632 6.48406C7.02459 7.25233 7.98689 7.79779 9.0407 8.06233C10.0945 8.32687 11.2003 8.30058 12.2404 7.98625C11.9389 8.97762 11.3857 9.87401 10.6349 10.5881C9.88402 11.3022 8.96102 11.8097 7.95577 12.0611C6.95052 12.3125 5.8973 12.2993 4.89867 12.0227C3.90005 11.7462 2.99007 11.2157 2.25736 10.483C1.52465 9.75031 0.994185 8.84033 0.717634 7.8417C0.441083 6.84308 0.42787 5.78985 0.679284 4.78461C0.930698 3.77936 1.43817 2.85636 2.15227 2.1055C2.86637 1.35464 3.76275 0.801515 4.75413 0.5Z" stroke="#594300" stroke-linecap="round" stroke-linejoin="round"/>
</svg>
