<svg width="12" height="10" viewBox="0 0 12 10" fill="none" xmlns="http://www.w3.org/2000/svg">
<path d="M10.5 0H0.875C0.642936 0 0.420376 0.0921872 0.256282 0.256282C0.0921872 0.420376 0 0.642936 0 0.875V8.75C0 8.98206 0.0921872 9.20462 0.256282 9.36872C0.420376 9.53281 0.642936 9.625 0.875 9.625H10.5C10.7321 9.625 10.9546 9.53281 11.1187 9.36872C11.2828 9.20462 11.375 8.98206 11.375 8.75V0.875C11.375 0.642936 11.2828 0.420376 11.1187 0.256282C10.9546 0.0921872 10.7321 0 10.5 0ZM7.21875 2.625C7.34854 2.625 7.47542 2.66349 7.58334 2.7356C7.69126 2.80771 7.77538 2.9102 7.82505 3.03011C7.87472 3.15003 7.88771 3.28198 7.86239 3.40928C7.83707 3.53658 7.77457 3.65351 7.68279 3.74529C7.59101 3.83707 7.47408 3.89957 7.34678 3.92489C7.21948 3.95021 7.08753 3.93722 6.96761 3.88755C6.8477 3.83788 6.74521 3.75376 6.6731 3.64584C6.60099 3.53792 6.5625 3.41104 6.5625 3.28125C6.5625 3.1072 6.63164 2.94028 6.75471 2.81721C6.87778 2.69414 7.0447 2.625 7.21875 2.625ZM10.5 8.75H0.875V6.60023L3.40922 4.06547C3.44985 4.02479 3.4981 3.99252 3.55121 3.97051C3.60433 3.94849 3.66126 3.93716 3.71875 3.93716C3.77624 3.93716 3.83317 3.94849 3.88629 3.97051C3.9394 3.99252 3.98765 4.02479 4.02828 4.06547L7.71094 7.74703C7.79303 7.82912 7.90437 7.87524 8.02047 7.87524C8.13657 7.87524 8.24791 7.82912 8.33 7.74703C8.41209 7.66494 8.45821 7.5536 8.45821 7.4375C8.45821 7.3214 8.41209 7.21006 8.33 7.12797L7.36422 6.16273L8.14844 5.37797C8.23048 5.29598 8.34171 5.24993 8.4577 5.24993C8.57368 5.24993 8.68491 5.29598 8.76695 5.37797L10.5 7.1132V8.75Z" fill="#403000"/>
</svg>
