<svg width="28" height="28" viewBox="0 0 28 28" fill="none" xmlns="http://www.w3.org/2000/svg">
<g clip-path="url(#clip0_184_4495)">
<path d="M14 2.625C11.7502 2.625 9.551 3.29213 7.68039 4.54203C5.80978 5.79193 4.35182 7.56847 3.49088 9.64698C2.62993 11.7255 2.40467 14.0126 2.84357 16.2192C3.28248 18.4257 4.36584 20.4525 5.95667 22.0433C7.54749 23.6342 9.57432 24.7175 11.7809 25.1564C13.9874 25.5953 16.2745 25.3701 18.353 24.5091C20.4315 23.6482 22.2081 22.1902 23.458 20.3196C24.7079 18.449 25.375 16.2498 25.375 14C25.3718 10.9841 24.1724 8.09271 22.0398 5.96018C19.9073 3.82764 17.0159 2.62818 14 2.625ZM18.4352 14.7197L12.7477 18.6572C12.6164 18.748 12.4627 18.8011 12.3034 18.8109C12.144 18.8206 11.9851 18.7866 11.8437 18.7124C11.7023 18.6383 11.5839 18.5269 11.5013 18.3903C11.4187 18.2537 11.375 18.0971 11.375 17.9375V10.0625C11.375 9.90286 11.4187 9.74627 11.5013 9.60968C11.5839 9.47308 11.7023 9.36169 11.8437 9.28756C11.9851 9.21344 12.144 9.1794 12.3034 9.18914C12.4627 9.19888 12.6164 9.25202 12.7477 9.34281L18.4352 13.2803C18.5516 13.3608 18.6467 13.4683 18.7124 13.5937C18.7782 13.719 18.8125 13.8585 18.8125 14C18.8125 14.1415 18.7782 14.281 18.7124 14.4063C18.6467 14.5317 18.5516 14.6392 18.4352 14.7197Z" fill="#FEBE01"/>
</g>
<defs>
<clipPath id="clip0_184_4495">
<rect width="28" height="28" fill="white"/>
</clipPath>
</defs>
</svg>
