<svg width="45" height="63" viewBox="0 0 45 63" fill="none" xmlns="http://www.w3.org/2000/svg">
<path d="M29.3792 22.0937C29.3792 18.1979 26.2183 15.0407 22.3243 15.0407C18.4277 15.0407 15.2695 18.1979 15.2695 22.0937C15.2695 24.7391 16.727 27.0399 18.8811 28.2481L19.0276 23.5678C19.0276 21.6529 20.5811 20.0995 22.4979 20.0995H22.6948C24.2043 20.0995 25.4279 21.3228 25.4279 22.8325V28.4216C27.7635 27.2741 29.3792 24.8737 29.3792 22.0937Z" fill="#FFDA6C"/>
<path d="M25.427 22.8326C25.427 21.3228 24.2034 20.0996 22.6938 20.0996H22.497C20.5802 20.0996 19.0267 21.653 19.0267 23.5679L18.8802 28.2482L18.5552 38.5597C18.4815 38.8777 18.4393 46.0472 18.4393 46.0472C17.8332 45.4292 17.1585 44.7224 16.5525 44.046C15.1373 42.4675 12.5372 41.4037 10.8089 41.2069C9.89847 41.1025 9.20338 41.2271 8.74063 41.5753C8.59259 41.6883 8.44776 41.8145 8.31149 41.9507C7.4196 42.8291 6.74643 44.248 7.36915 45.2879C7.63831 45.7421 8.10088 46.0436 8.5925 46.36C9.24384 46.7823 10.341 47.2399 11.1657 48.2918C12.5468 50.0588 15.745 54.0089 17.7105 56.1174C18.1194 56.3717 18.9846 57.235 19.3935 57.4537C20.6339 58.2464 21.6471 58.9919 21.9985 59.3958C22.2731 59.7103 23.8969 60.5418 23.8969 60.5418C25.2098 61.3733 27.5994 62.1505 30.3594 62.1505C33.1142 62.1505 35.617 62.3156 37.4666 60.6885H37.5656L37.6144 60.5655C39.4961 58.8422 40.6658 56.4539 40.6658 53.8135C40.6658 53.1606 40.6658 50.7525 40.6658 50.2996V41.1898C40.6658 40.5708 40.5296 38.4971 38.7857 37.8743C37.9478 37.5766 37.1553 37.6893 36.4801 37.9806L36.3223 37.9873L36.2735 37.9906C35.9703 36.8513 35.213 36.1159 34.0923 35.9207C32.7392 35.6865 31.8015 36.0906 31.2379 36.4997C30.6777 35.2947 29.5533 34.6668 28.032 34.7947C26.8912 34.891 26.0427 35.4512 25.427 36.1899V28.4217V22.8326Z" fill="#FEBE01"/>
<path d="M38.0654 33.8069L39.4656 35.3652C39.7351 35.6681 40.223 35.6497 40.4603 35.3216C43.1597 31.5755 44.6476 27.0669 44.6476 22.3242C44.6476 10.0135 34.6327 0 22.3235 0C21.4788 0 20.6222 0.0472361 19.7754 0.141621C9.50281 1.28601 1.24158 9.5779 0.132583 19.8586C-0.471784 25.4527 1.00914 30.9105 4.1849 35.3215C4.42037 35.6513 4.90843 35.668 5.18151 35.3668L6.57982 33.8101C6.77857 33.5897 6.79336 33.2631 6.62509 33.019C4.38365 29.744 3.20718 25.8329 3.32474 21.7655C3.60932 11.8935 11.556 3.80027 21.4162 3.34073C32.3185 2.80401 41.3289 11.5434 41.3289 22.3241C41.3289 26.1815 40.1525 29.8908 38.0167 33.0158C37.8501 33.2616 37.8652 33.5866 38.0654 33.8069Z" fill="#FEBE01"/>
<path d="M31.7899 26.8228L33.2724 28.472C33.5753 28.8119 34.126 28.7344 34.3294 28.3291C35.2653 26.4795 35.7583 24.4446 35.7583 22.3242C35.7583 16 31.2683 10.4715 25.0782 9.17558C23.2728 8.7934 21.3757 8.7934 19.5651 9.17558C13.3786 10.4715 8.88867 16 8.88867 22.3242C8.88867 24.4464 9.38163 26.4794 10.3159 28.3291C10.5231 28.7344 11.07 28.8119 11.3745 28.472L12.8554 26.8228C13.0221 26.6375 13.0607 26.375 12.9666 26.1464C12.4684 24.9363 12.206 23.6388 12.206 22.3242C12.206 18.0951 14.8798 14.2751 18.8576 12.8192C21.0797 12.008 23.5668 12.008 25.787 12.8192C29.7653 14.2751 32.4378 18.0951 32.4378 22.3242C32.4378 23.6388 32.1754 24.9363 31.6805 26.1464C31.5863 26.3767 31.6244 26.6391 31.7899 26.8228Z" fill="#FFD14B"/>
</svg>
