<svg width="13" height="13" viewBox="0 0 13 13" fill="none" xmlns="http://www.w3.org/2000/svg">
<path d="M8.03625 7.57421L9.47375 8.29171C9.40561 8.63219 9.22145 8.93848 8.95269 9.15834C8.68394 9.3782 8.34723 9.49801 8 9.49733C6.80693 9.49601 5.66311 9.02148 4.81948 8.17785C3.97585 7.33423 3.50132 6.1904 3.5 4.99733C3.4999 4.65053 3.61998 4.31441 3.83979 4.04617C4.0596 3.77793 4.36557 3.59414 4.70563 3.52608L5.42312 4.96358L4.8125 5.87233C4.76687 5.94078 4.73883 6.01943 4.73087 6.1013C4.72292 6.18318 4.73528 6.26576 4.76687 6.34171C5.12462 7.19195 5.80101 7.86834 6.65125 8.22608C6.72743 8.25908 6.81063 8.27259 6.89334 8.26539C6.97605 8.25818 7.05567 8.2305 7.125 8.18483L8.03625 7.57421ZM13 6.49733C13.0002 7.61954 12.7099 8.7227 12.1574 9.69943C11.6048 10.6762 10.8087 11.4932 9.84669 12.071C8.88466 12.6488 7.78942 12.9677 6.66759 12.9966C5.54575 13.0255 4.43554 12.7635 3.445 12.2361L1.31687 12.9455C1.14068 13.0042 0.951599 13.0127 0.770829 12.9701C0.590059 12.9274 0.424742 12.8353 0.293407 12.7039C0.162072 12.5726 0.0699091 12.4073 0.0272484 12.2265C-0.0154122 12.0457 -0.00688479 11.8567 0.0518748 11.6805L0.76125 9.55233C0.297593 8.6806 0.0386232 7.7147 0.00399834 6.72794C-0.0306265 5.74118 0.160003 4.7595 0.561418 3.85742C0.962833 2.95533 1.56448 2.15655 2.3207 1.5217C3.07691 0.886857 3.96782 0.432632 4.92579 0.193506C5.88376 -0.0456203 6.88362 -0.0633622 7.84948 0.141627C8.81533 0.346615 9.72179 0.768947 10.5001 1.37657C11.2783 1.98418 11.9079 2.76112 12.3411 3.64839C12.7743 4.53567 12.9996 5.50997 13 6.49733ZM10.5 7.99733C10.5001 7.90444 10.4743 7.81337 10.4255 7.73433C10.3767 7.65529 10.3068 7.5914 10.2238 7.54983L8.22375 6.54983C8.14502 6.5106 8.05734 6.49283 7.96955 6.49832C7.88177 6.50381 7.79698 6.53236 7.72375 6.58108L6.80562 7.19358C6.38416 6.96189 6.03732 6.61505 5.80562 6.19358L6.41813 5.27546C6.46685 5.20223 6.4954 5.11744 6.50089 5.02965C6.50637 4.94187 6.48861 4.85418 6.44938 4.77546L5.44938 2.77546C5.40793 2.69175 5.34386 2.62133 5.26444 2.57217C5.18501 2.52302 5.09341 2.49709 5 2.49733C4.33696 2.49733 3.70107 2.76073 3.23223 3.22957C2.76339 3.69841 2.5 4.33429 2.5 4.99733C2.50165 6.45552 3.08165 7.8535 4.11274 8.88459C5.14383 9.91569 6.54182 10.4957 8 10.4973C8.3283 10.4973 8.65339 10.4327 8.95671 10.307C9.26002 10.1814 9.53562 9.99725 9.76777 9.7651C9.99991 9.53295 10.1841 9.25736 10.3097 8.95404C10.4353 8.65073 10.5 8.32564 10.5 7.99733Z" fill="#3F935F"/>
</svg>
